<svg version="1.1" xmlns="http://www.w3.org/2000/svg" viewBox="0 0 585 391" width="585" height="391">
  <!-- svg-source:excalidraw -->
  
  <defs>
    <style>
      @font-face {
        font-family: "Virgil";
        src: url("https://excalidraw.com/Virgil.woff2");
      }
      @font-face {
        font-family: "Cascadia";
        src: url("https://excalidraw.com/Cascadia.woff2");
      }
    </style>
  </defs>
  <rect x="0" y="0" width="585" height="391" fill="#ffffff"></rect><g stroke-linecap="round" transform="translate(10 10) rotate(0 279.5 185.5)"><path d="M0.43 -0.11 C153.12 -1.7, 304.85 -0.52, 559.72 0.12 M0.31 0.01 C211.42 -1.47, 422.23 -0.97, 558.88 0.36 M559.77 -0.34 C556.27 76.85, 557.09 155.03, 559.99 371.6 M559.17 -0.32 C558.03 79.68, 557.99 159.08, 559.53 371.24 M559.13 371.74 C408.14 370.86, 258.04 370.41, -0.63 370.76 M559.26 370.99 C439.09 371.54, 319.78 370.97, -0.19 370.81 M0.96 371.87 C2.64 230.2, 1.32 90.81, 0.38 0.01 M-0.11 370.74 C1.02 289.51, 0.91 209.14, -0.23 0.28" stroke="#000000" stroke-width="1" fill="none"></path></g><g transform="translate(17 13) rotate(0 251 37.5)"><text x="0" y="18" font-family="Virgil, Segoe UI Emoji" font-size="20px" fill="#000000" text-anchor="start" style="white-space: pre;" direction="ltr">My hobby: Whenever anyone calls something a </text><text x="0" y="43" font-family="Virgil, Segoe UI Emoji" font-size="20px" fill="#000000" text-anchor="start" style="white-space: pre;" direction="ltr">fucking [noun], I mentally read it as a single thing</text><text x="0" y="68" font-family="Virgil, Segoe UI Emoji" font-size="20px" fill="#000000" text-anchor="start" style="white-space: pre;" direction="ltr"></text></g><g stroke-linecap="round" transform="translate(65 168) rotate(0 25 23.5)"><path d="M35.69 2.63 C40.61 4.49, 46.18 9.18, 48.48 13.95 C50.77 18.73, 51.06 26.37, 49.47 31.29 C47.88 36.22, 43.42 40.75, 38.94 43.51 C34.45 46.26, 28.08 48.32, 22.56 47.82 C17.04 47.32, 9.58 44.4, 5.83 40.52 C2.07 36.64, 0.06 29.67, 0.02 24.54 C-0.02 19.41, 2.21 13.75, 5.59 9.76 C8.96 5.76, 14.85 1.7, 20.27 0.57 C25.69 -0.56, 35.05 2.34, 38.1 2.98 C41.16 3.62, 38.88 4.02, 38.62 4.41 M31.2 1.58 C36.18 2.21, 41.34 5.9, 44.63 9.68 C47.93 13.46, 51.05 19.32, 50.97 24.26 C50.89 29.19, 48 35.59, 44.15 39.29 C40.29 42.99, 33.14 45.94, 27.83 46.45 C22.53 46.97, 16.63 45.16, 12.33 42.38 C8.02 39.6, 3.73 34.39, 1.99 29.79 C0.25 25.18, 0.18 19.14, 1.88 14.75 C3.59 10.36, 7.57 5.97, 12.19 3.43 C16.82 0.88, 26.82 -0.27, 29.63 -0.5 C32.43 -0.74, 28.95 1.35, 29.04 2.03" stroke="#000000" stroke-width="1" fill="none"></path></g><g stroke-linecap="round"><g transform="translate(88 216) rotate(0 -0.1932876559106944 46.349934908580025)"><path d="M0.6 -0.83 C0.54 14.65, 0.31 76.44, 0.07 92 M-0.55 1.35 C-0.79 17.1, -1.21 78.68, -0.84 93.53" stroke="#000000" stroke-width="1" fill="none"></path></g></g><g stroke-linecap="round"><g transform="translate(65 339) rotate(0 10.835316805262096 -16.858423536736524)"><path d="M0.8 0.85 C4.31 -4.45, 18.35 -27.08, 21.9 -32.64 M-0.23 0.25 C3.04 -5.34, 17.3 -28.77, 20.91 -34.57" stroke="#000000" stroke-width="1" fill="none"></path></g></g><g stroke-linecap="round"><g transform="translate(112 335) rotate(0 -12.676153614232305 -15.954702293416489)"><path d="M-0.93 -0.06 C-5.46 -5, -22.28 -25.01, -26.14 -30.17 M0.78 -1.14 C-3.49 -6.36, -19.83 -27.1, -24.02 -31.85" stroke="#000000" stroke-width="1" fill="none"></path></g></g><g stroke-linecap="round"><g transform="translate(89 243) rotate(0 29.91985719173215 -31.84061044491827)"><path d="M-0.38 0.12 C9.09 -10.35, 48.1 -53.29, 58.02 -63.81 M1.62 -0.86 C11.35 -11.11, 50.75 -52.56, 60.22 -62.69" stroke="#000000" stroke-width="1" fill="none"></path></g></g><g stroke-linecap="round"><g transform="translate(37 184) rotate(0 25.57767469151878 27.728128557298305)"><path d="M1.07 -0.28 C9.5 8.97, 42.85 46.39, 50.98 55.95 M0.17 -1.48 C8.5 7.85, 42.41 46.95, 50.55 56.94" stroke="#000000" stroke-width="1" fill="none"></path></g></g><g stroke-linecap="round" transform="translate(261.5 167.5) rotate(0 25 23.5)"><path d="M33.94 2.22 C38.82 3.72, 44.51 7.76, 46.99 12.13 C49.47 16.49, 49.91 23.38, 48.84 28.41 C47.76 33.43, 44.88 39.26, 40.56 42.28 C36.24 45.3, 28.33 46.9, 22.91 46.52 C17.5 46.14, 11.74 43.52, 8.09 40.03 C4.43 36.54, 1.73 30.57, 1 25.56 C0.27 20.55, 0.78 13.94, 3.7 9.98 C6.61 6.02, 12.51 2.79, 18.48 1.8 C24.45 0.8, 35.24 2.8, 39.54 4.02 C43.84 5.25, 44.53 8.66, 44.29 9.14 M30.52 1.11 C35.49 1.49, 42.06 4.31, 45.21 8.06 C48.35 11.82, 49.44 18.63, 49.38 23.64 C49.32 28.65, 48.12 34.3, 44.86 38.14 C41.6 41.99, 35.06 45.84, 29.81 46.72 C24.56 47.59, 17.86 46.18, 13.34 43.39 C8.83 40.61, 4.83 34.69, 2.71 30.01 C0.6 25.32, -1.32 19.56, 0.63 15.28 C2.58 10.99, 9.51 6.71, 14.42 4.3 C19.33 1.88, 27.56 1.38, 30.12 0.78 C32.68 0.18, 30.14 0.16, 29.79 0.72" stroke="#000000" stroke-width="1" fill="none"></path></g><g stroke-linecap="round"><g transform="translate(284.5 215.5) rotate(0 0.24668931366875313 46.81064097005873)"><path d="M1.2 0.96 C1.01 16.29, -0.52 76.53, -0.88 91.78 M0.36 0.42 C0.53 15.95, 1.2 78.22, 1.37 93.2" stroke="#000000" stroke-width="1" fill="none"></path></g></g><g stroke-linecap="round"><g transform="translate(261.5 338.5) rotate(0 10.893140189489316 -16.34991315959951)"><path d="M0.96 -0.88 C4.62 -6.74, 18.2 -28.57, 21.78 -33.97 M0.01 1.27 C3.51 -3.96, 17.07 -27.37, 20.72 -32.95" stroke="#000000" stroke-width="1" fill="none"></path></g></g><g stroke-linecap="round"><g transform="translate(308.5 334.5) rotate(0 -12.556680551599698 -16.34489885376766)"><path d="M-0.88 -0.22 C-5.41 -5.48, -21.9 -25.3, -25.97 -30.57 M0.86 -1.38 C-3.41 -7.09, -19.25 -27.54, -23.77 -32.47" stroke="#000000" stroke-width="1" fill="none"></path></g></g><g stroke-linecap="round"><g transform="translate(285 246) rotate(0 26.944061203589627 -0.34948716033005667)"><path d="M0.9 -0.02 C10.06 0.19, 45.41 0.68, 53.97 0.61 M-0.08 -1.07 C9.09 -1.15, 44.39 -1.49, 53.53 -1.19" stroke="#000000" stroke-width="1" fill="none"></path></g></g><g stroke-linecap="round"><g transform="translate(356 212) rotate(0 -9.585370641741918 16.733752476666126)"><path d="M-0.58 0.7 C-3.62 6.06, -16.46 27.02, -19.36 32.29 M1.32 0.02 C-1.82 5.51, -17.25 27.91, -20.49 33.45" stroke="#000000" stroke-width="1" fill="none"></path></g></g><g stroke-linecap="round"><g transform="translate(370 210) rotate(0 -5.236128974333383 0.4853075678460357)"><path d="M1.16 -0.04 C-0.58 0.39, -9.41 1.79, -11.63 2.08 M0.31 -1.1 C-0.93 -0.94, -7.55 0.39, -9.25 0.52" stroke="#000000" stroke-width="1" fill="none"></path></g></g><g stroke-linecap="round"><g transform="translate(244 243) rotate(0 22.08375702651216 0.7047591272741727)"><path d="M1.02 -1.17 C8.36 -0.81, 36.98 2.04, 44.07 2.58 M0.09 0.83 C7.37 0.79, 36.52 0.33, 43.69 0.76" stroke="#000000" stroke-width="1" fill="none"></path></g></g><g stroke-linecap="round"><g transform="translate(230 215) rotate(0 9.44557593246924 13.035836221668859)"><path d="M1.19 -0.36 C3.96 4.01, 13.57 21.79, 16.23 26.08 M0.35 -1.59 C3.55 3, 15.86 23, 18.54 27.66" stroke="#000000" stroke-width="1" fill="none"></path></g></g><g stroke-linecap="round"><g transform="translate(214 216) rotate(0 8.909182093758147 -0.42850560517982217)"><path d="M-0.25 -0.52 C2.33 -0.82, 13.09 -2.46, 15.92 -2.68 M1.82 1.83 C4.71 1.74, 15.73 -1.13, 18.07 -1.51" stroke="#000000" stroke-width="1" fill="none"></path></g></g><g stroke-linecap="round"><g transform="translate(89 160) rotate(0 7.226204850403576 -23.12648876586931)"><path d="M-0.09 0.7 C2.44 -6.89, 13.32 -37.26, 16.04 -45.05 M-1.59 0.02 C0.74 -7.98, 12.46 -39.44, 15.37 -46.95" stroke="#000000" stroke-width="1" fill="none"></path></g></g><g transform="translate(27 86) rotate(0 169 12.5)"><text x="0" y="18" font-family="Virgil, Segoe UI Emoji" font-size="20px" fill="#000000" text-anchor="start" style="white-space: pre;" direction="ltr">AI will take over our fucking jobs.</text></g><g stroke-linecap="round"><g transform="translate(319 175) rotate(0 16.957237881785318 -14.680208343779697)"><path d="M1.03 -0.9 C6.73 -6.19, 28.23 -25.47, 33.8 -30.6 M0.12 1.24 C5.68 -3.32, 27.18 -23.64, 32.81 -28.99" stroke="#000000" stroke-width="1" fill="none"></path></g></g><g transform="translate(357 109) rotate(0 109 50)"><text x="0" y="18" font-family="Virgil, Segoe UI Emoji" font-size="20px" fill="#000000" text-anchor="start" style="white-space: pre;" direction="ltr">I'm not a prostitute.</text><text x="0" y="43" font-family="Virgil, Segoe UI Emoji" font-size="20px" fill="#000000" text-anchor="start" style="white-space: pre;" direction="ltr">Why should I care if</text><text x="0" y="68" font-family="Virgil, Segoe UI Emoji" font-size="20px" fill="#000000" text-anchor="start" style="white-space: pre;" direction="ltr">it takes over fucking </text><text x="0" y="93" font-family="Virgil, Segoe UI Emoji" font-size="20px" fill="#000000" text-anchor="start" style="white-space: pre;" direction="ltr">jobs?</text></g><g transform="translate(477 349) rotate(0 42.5 12.5)"><text x="0" y="18" font-family="Virgil, Segoe UI Emoji" font-size="20px" fill="#000000" text-anchor="start" style="white-space: pre;" direction="ltr">   Cirilla</text></g></svg>